HIERARCHY
ROOT Hips
{
	OFFSET 0.00000 0.00000 0.00000
	CHANNELS 6 Xposition Yposition Zposition Zrotation Yrotation Xrotation 
	JOINT LHipJoint
	{
		OFFSET 0 0 0
		CHANNELS 3 Zrotation Yrotation Xrotation
		JOINT LeftUpLeg
		{
			OFFSET 1.66553 -1.82942 0.76350
			CHANNELS 3 Zrotation Yrotation Xrotation
			JOINT LeftLeg
			{
				OFFSET 2.41740 -6.64177 0.00000
				CHANNELS 3 Zrotation Yrotation Xrotation
				JOINT LeftFoot
				{
					OFFSET 2.71614 -7.46254 0.00000
					CHANNELS 3 Zrotation Yrotation Xrotation
					JOINT LeftToeBase
					{
						OFFSET 0.08005 -0.21993 1.82495
						CHANNELS 3 Zrotation Yrotation Xrotation
						End Site
						{
							OFFSET 0.00000 -0.00000 0.93441
						}
					}
				}
			}
		}
	}
	JOINT RHipJoint
	{
		OFFSET 0 0 0
		CHANNELS 3 Zrotation Yrotation Xrotation
		JOINT RightUpLeg
		{
			OFFSET -1.63725 -1.82942 0.76350
			CHANNELS 3 Zrotation Yrotation Xrotation
			JOINT RightLeg
			{
				OFFSET -2.40538 -6.60872 0.00000
				CHANNELS 3 Zrotation Yrotation Xrotation
				JOINT RightFoot
				{
					OFFSET -2.73312 -7.50919 0.00000
					CHANNELS 3 Zrotation Yrotation Xrotation
					JOINT RightToeBase
					{
						OFFSET -0.15567 -0.42769 1.93504
						CHANNELS 3 Zrotation Yrotation Xrotation
						End Site
						{
							OFFSET -0.00000 -0.00000 1.00100
						}
					}
				}
			}
		}
	}
	JOINT LowerBack
	{
		OFFSET 0 0 0
		CHANNELS 3 Zrotation Yrotation Xrotation
		JOINT Spine
		{
			OFFSET 0.00326 2.30118 -0.13017
			CHANNELS 3 Zrotation Yrotation Xrotation
			JOINT Spine1
			{
				OFFSET 0.02887 2.30677 0.00834
				CHANNELS 3 Zrotation Yrotation Xrotation
				JOINT Neck
				{
					OFFSET 0 0 0
					CHANNELS 3 Zrotation Yrotation Xrotation
					JOINT Neck1
					{
						OFFSET 0.12946 1.68326 0.00713
						CHANNELS 3 Zrotation Yrotation Xrotation
						JOINT Head
						{
							OFFSET -0.24364 1.67243 -0.16079
							CHANNELS 3 Zrotation Yrotation Xrotation
							End Site
							{
								OFFSET -0.09229 1.70819 -0.06383
							}
						}
					}
				}
				JOINT LeftShoulder
				{
					OFFSET 0 0 0
					CHANNELS 3 Zrotation Yrotation Xrotation
					JOINT LeftArm
					{
						OFFSET 3.28104 0.69567 -0.00556
						CHANNELS 3 Zrotation Yrotation Xrotation
						JOINT LeftForeArm
						{
							OFFSET 5.70706 -0.00000 -0.00000
							CHANNELS 3 Zrotation Yrotation Xrotation
							JOINT LeftHand
							{
								OFFSET 3.33243 -0.00000 0.00000
								CHANNELS 3 Zrotation Yrotation Xrotation
								JOINT LeftFingerBase
								{
									OFFSET 0 0 0
									CHANNELS 3 Zrotation Yrotation Xrotation
									JOINT LeftHandIndex1
									{
										OFFSET 0.79269 -0.00000 0.00000
										CHANNELS 3 Zrotation Yrotation Xrotation
										End Site
										{
											OFFSET 0.63909 -0.00000 0.00000
										}
									}
								}
								JOINT LThumb
								{
									OFFSET 0 0 0
									CHANNELS 3 Zrotation Yrotation Xrotation
									End Site
									{
										OFFSET 0.64884 -0.00000 0.64884
									}
								}
							}
						}
					}
				}
				JOINT RightShoulder
				{
					OFFSET 0 0 0
					CHANNELS 3 Zrotation Yrotation Xrotation
					JOINT RightArm
					{
						OFFSET -3.40955 0.64424 0.14010
						CHANNELS 3 Zrotation Yrotation Xrotation
						JOINT RightForeArm
						{
							OFFSET -5.88176 -0.00000 -0.00000
							CHANNELS 3 Zrotation Yrotation Xrotation
							JOINT RightHand
							{
								OFFSET -3.28156 -0.00000 0.00000
								CHANNELS 3 Zrotation Yrotation Xrotation
								JOINT RightFingerBase
								{
									OFFSET 0 0 0
									CHANNELS 3 Zrotation Yrotation Xrotation
									JOINT RightHandIndex1
									{
										OFFSET -0.86313 -0.00000 0.00000
										CHANNELS 3 Zrotation Yrotation Xrotation
										End Site
										{
											OFFSET -0.69587 -0.00000 0.00000
										}
									}
								}
								JOINT RThumb
								{
									OFFSET 0 0 0
									CHANNELS 3 Zrotation Yrotation Xrotation
									End Site
									{
										OFFSET -0.70650 -0.00000 0.70650
									}
								}
							}
						}
					}
				}
			}
		}
	}
}
MOTION
Frames: 16
Frame Time: 0.0136054
0.00 0.00 0.00 11.3609 17.9546 3.0581 0.0000 0.0000 0.0000 -19.3486 -0.9076 -5.7113 0.9517 6.2124 17.4020 -0.4788 -13.0648 9.9654 0.6333 -5.0918 -14.1705 0.0000 0.0000 0.0000 3.1645 -1.4572 -5.7908 -3.0718 -10.8104 31.6429 -1.0713 -5.7445 -22.4246 -0.5223 4.6315 -12.8605 5.1717 0.7099 4.5753 -0.2982 1.3081 -3.1682 -3.3371 0.4345 -5.7541 16.6497 17.9066 19.0845 -26.9372 25.9077 -11.2794 -11.3032 14.4310 -0.4153 -0.0000 -0.0000 0.0000 -20.7060 3.5920 13.0613 75.0360 -59.1368 -47.0783 -0.0000 0.0000 -9.8526 30.1472 18.9464 10.6789 -7.1250 0.0000 -0.0000 1.9748 51.6213 0.3221 -0.0000 -0.0000 0.0000 15.5792 8.3511 -23.4166 -76.1786 59.2657 -48.0599 0.0000 0.0000 17.9221 -3.7799 10.2182 -0.6715 7.1250 -0.0000 -0.0000 16.3811 -19.9218 10.2417
0.00 0.00 0.00 15.2417 20.4108 3.8113 0.0000 0.0000 0.0000 -18.8775 -4.6386 -11.5899 1.7473 8.3186 23.6860 1.3019 -3.2307 22.9333 0.0109 0.6744 1.8533 0.0000 0.0000 0.0000 5.0263 -2.9032 -3.1972 -2.1604 -9.1926 26.3996 -1.0288 -8.4769 -23.9977 -0.1450 2.4541 -6.7623 4.8742 1.4587 5.0208 -1.8507 2.2099 -2.0358 -4.8647 0.9192 -4.6809 15.1323 18.1045 17.9268 -26.1846 25.6675 -11.5916 -10.8320 14.2486 -0.6983 -0.0000 0.0000 0.0000 -23.6215 6.0659 19.3242 76.1369 -59.2612 -48.0240 -0.0000 0.0000 -6.6529 28.5783 16.3899 8.7384 -7.1250 0.0000 -0.0000 0.7755 48.4955 0.0669 -0.0000 0.0000 0.0000 28.2047 7.6816 -19.8628 -88.1669 59.9873 -58.4125 0.0000 0.0000 12.5172 -21.0093 10.0277 -3.8258 7.1250 -0.0000 -0.0000 4.2588 -19.2700 2.6219
0.00 0.00 0.00 17.0241 24.4130 11.2810 0.0000 0.0000 0.0000 -14.3191 -4.0307 -26.6892 2.0908 9.0528 25.9605 0.6188 0.2929 14.7667 0.0000 0.0301 0.0827 0.0000 0.0000 0.0000 9.0977 -0.1872 -5.2534 -0.7613 -5.5723 15.5483 0.0131 -16.4678 -23.2285 -0.1385 -2.3982 6.6074 2.4109 1.3654 5.7739 -0.8684 1.9886 -3.2468 -2.4849 0.8549 -6.5183 15.3334 17.3648 14.8039 -29.2099 23.6037 -16.5041 -11.9725 13.4164 -1.5332 0.0000 0.0000 0.0000 -27.5413 19.8509 16.2875 69.0473 -58.2744 -41.9596 -0.0000 0.0000 -0.2298 31.0571 11.3331 6.7492 -7.1250 0.0000 -0.0000 3.5754 43.1195 -0.1662 0.0000 0.0000 0.0000 25.2947 6.6931 -14.4428 -67.9708 58.0845 -41.0449 0.0000 -0.0000 -8.8385 -1.4707 5.7274 -0.1468 7.1250 -0.0000 -0.0000 18.5252 -24.2332 9.7892
0.00 0.00 0.00 -4.0935 35.9605 3.2421 0.0000 0.0000 0.0000 1.5194 -16.8998 -17.0838 1.9337 8.7266 24.9437 -0.0671 -4.6228 2.2873 0.2356 3.1242 8.6246 0.0000 0.0000 0.0000 31.2148 -16.2742 -16.1393 -1.7798 -8.3916 23.9099 -0.6923 0.3640 -15.6033 -0.0716 1.7259 -4.7488 -6.7146 2.7737 9.8636 -2.1046 2.6419 -3.2620 1.0444 1.5973 -9.2692 21.0412 10.3065 9.6611 -15.8044 15.0950 -14.3063 -8.7592 7.5641 -2.9241 0.0000 -0.0000 0.0000 -6.1503 2.8588 -1.8483 44.5580 -50.5501 -21.8969 -0.0000 0.0000 -10.7207 34.3678 21.5143 14.0796 -7.1250 0.0000 -0.0000 6.1554 55.4019 1.5761 0.0000 -0.0000 0.0000 20.7875 -0.6966 -20.7319 -19.2883 29.7753 -5.1732 0.0000 -0.0000 -2.0161 0.5116 4.1416 0.0370 7.1250 -0.0000 -0.0000 20.1824 -25.7110 10.0296
0.00 0.00 0.00 -11.0246 27.3338 0.2266 0.0000 0.0000 0.0000 1.2959 -15.3463 -10.6144 1.8010 8.4387 24.0546 0.0002 4.6713 -6.6755 2.3061 -9.4765 -27.2975 0.0000 0.0000 0.0000 30.3682 -14.8826 -18.7560 -2.6535 -10.1118 29.3395 0.2430 8.7939 4.5879 -0.0001 0.0668 -0.1836 -6.4601 1.5779 9.5526 0.7797 1.3408 -3.0178 4.2475 1.0298 -8.7880 18.8826 5.4333 4.5519 -12.6502 7.7349 -9.2575 -7.1405 3.7850 -2.2164 0.0000 -0.0000 0.0000 -2.1345 -0.1315 -4.4215 31.4827 -42.1309 -12.3924 -0.0000 0.0000 -10.7217 28.6173 17.6468 9.3917 -7.1250 0.0000 -0.0000 0.6268 49.8986 0.0757 0.0000 -0.0000 0.0000 17.2499 6.4573 -16.5750 -17.5898 27.6287 -4.3573 0.0000 0.0000 12.3103 2.6918 9.7676 0.4570 7.1250 -0.0000 -0.0000 20.8381 -20.4233 13.1416
0.00 0.00 0.00 -14.4090 14.0213 0.4207 0.0000 0.0000 0.0000 -3.9964 -12.8691 -1.1614 1.1354 6.7671 19.0272 0.2147 13.2564 -21.2269 1.9832 -8.8309 -25.2679 0.0000 0.0000 0.0000 26.3119 -10.9491 -20.7636 -3.4054 -11.3241 33.3809 -0.3177 6.9134 15.3730 -0.8291 -5.8091 16.2316 -4.9144 -0.9514 4.8337 4.4807 -1.3891 -3.8366 7.6781 -0.3361 -6.5313 15.4939 -0.7407 1.4796 -14.1727 -0.6409 1.9838 -6.8777 -0.2569 0.2254 0.0000 -0.0000 0.0000 3.3651 -2.5628 -5.7054 28.1291 -39.2348 -10.2052 -0.0000 0.0000 -5.1574 27.3596 19.0729 9.5974 -7.1250 0.0000 -0.0000 -0.8963 51.2485 -0.1380 0.0000 -0.0000 0.0000 10.6433 14.1417 -3.5847 -28.4441 39.5219 -10.4051 0.0000 0.0000 17.0842 -4.2857 13.4171 -0.9962 7.1250 -0.0000 -0.0000 15.7745 -16.8261 10.9596
0.00 0.00 0.00 -15.5644 -6.6096 -2.5751 0.0000 0.0000 0.0000 -11.1748 -0.6577 1.9378 1.0354 6.4721 18.1604 1.0980 13.7897 -29.0730 0.2379 3.1393 8.6668 0.0000 0.0000 0.0000 19.5927 -3.7372 -19.5261 -2.8399 -10.4313 30.3851 0.0294 3.1568 2.0623 -0.1410 -2.4202 6.6686 -1.6452 -3.1259 11.8098 6.4201 -4.0032 -0.1251 8.4835 -1.8362 -6.1842 15.3092 3.1179 1.3141 -19.0139 3.1803 -10.6544 -8.6200 1.7391 -2.6583 -0.0000 0.0000 0.0000 0.6099 -16.7845 -9.5617 55.2832 -54.9161 -30.4476 -0.0000 0.0000 -7.6576 30.6539 17.9227 10.3362 -7.1250 0.0000 -0.0000 2.6392 50.5658 0.3622 -0.0000 0.0000 0.0000 -6.9224 39.0133 -17.9112 -32.0869 42.6164 -12.7996 0.0000 0.0000 19.3438 -19.2557 13.6703 -4.7195 7.1250 -0.0000 -0.0000 5.5748 -15.5786 3.8915
0.00 0.00 0.00 -5.4133 -11.8215 12.7630 0.0000 0.0000 0.0000 -24.5000 9.6484 -29.8754 2.3455 9.5514 27.5358 0.8984 4.8959 -20.3229 0.5505 -4.7530 -13.2053 0.0000 0.0000 0.0000 0.4695 10.2244 -43.4318 -4.3598 -12.6244 37.9782 -0.4829 -1.6587 12.6585 -0.7082 -5.3787 14.9918 2.9758 -3.3775 14.1287 3.8805 -3.5175 -4.4612 3.4981 -1.6920 -12.8428 10.1630 0.2387 -0.7987 -22.7628 -1.5137 -9.8683 -8.8853 -0.4278 -2.8799 0.0000 -0.0000 0.0000 6.8132 -4.1591 -5.6851 46.3988 -51.4356 -23.3274 -0.0000 0.0000 -7.0217 30.2970 14.3828 8.2580 -7.1250 0.0000 -0.0000 2.6673 46.5037 0.0991 0.0000 -0.0000 0.0000 -19.0352 41.3733 -32.3190 -33.5064 43.7156 -13.7708 0.0000 -0.0000 -28.2621 -24.8756 1.4739 -0.6833 7.1250 -0.0000 -0.0000 1.3179 -28.3543 0.5340
0.00 0.00 0.00 14.0333 0.2039 9.9046 0.0000 0.0000 0.0000 -28.6143 8.8928 -32.7134 5.0703 13.4625 41.1254 0.0967 -8.2411 -7.5595 2.4451 -9.7375 -28.1306 0.0000 0.0000 0.0000 -6.1039 6.5715 -33.9188 -6.5400 -14.9320 47.1124 -1.5632 -0.8941 -23.9784 -0.8318 5.8185 -16.2587 -4.8564 -3.5908 15.2477 -7.9890 -7.1456 -6.0635 -4.3559 -3.3740 -16.1370 8.8866 -0.0692 2.6688 -20.8438 -0.8619 -5.4368 -7.9273 -0.0708 -2.1361 0.0000 0.0000 0.0000 14.0153 -10.1859 -17.6359 48.6334 -52.4292 -25.0868 -0.0000 0.0000 -10.4090 13.1348 11.8299 2.7388 -7.1250 0.0000 -0.0000 -12.5404 41.7812 1.0134 0.0000 0.0000 0.0000 -22.0421 29.4105 -37.6461 -31.7134 42.3175 -12.5475 0.0000 -0.0000 -12.3260 24.3833 13.3091 5.9569 7.1250 -0.0000 -0.0000 33.1055 -15.9712 27.9269
0.00 0.00 0.00 18.1991 10.8939 9.1888 0.0000 0.0000 0.0000 -25.0405 4.0244 -34.6556 6.3434 14.7531 46.3449 -0.2657 -9.6467 6.9784 0.4059 -4.0900 -11.3301 0.0000 0.0000 0.0000 -4.1596 1.2022 -33.8953 -8.6862 -16.6015 54.9985 -2.6129 -2.8626 -31.6746 -0.0693 1.6984 -4.6728 -5.3042 -3.5463 17.7199 -10.3823 -7.5129 -4.0140 -6.6610 -3.6469 -15.5813 10.5136 4.7564 4.1942 -21.0106 5.7062 -7.7066 -8.4102 3.3261 -1.9479 -0.0000 -0.0000 0.0000 10.5187 -14.2244 -20.4751 59.9987 -56.3096 -34.3400 -0.0000 0.0000 -10.6482 20.2086 11.3143 4.1306 -7.1250 0.0000 -0.0000 -6.2089 41.9338 0.4717 -0.0000 -0.0000 0.0000 -20.6769 22.0765 -35.1564 -40.3622 48.2830 -18.7092 0.0000 0.0000 1.4809 16.2919 13.3943 3.8732 7.1250 -0.0000 -0.0000 28.7406 -16.7137 22.2907
0.00 0.00 0.00 18.5090 29.2770 5.7135 0.0000 0.0000 0.0000 -17.3497 -7.2621 -37.4387 8.7923 16.6722 55.3689 1.1351 -2.4099 21.1274 0.8082 5.7371 16.0235 0.0000 0.0000 0.0000 2.8876 -12.3634 -31.7732 -10.9060 -17.8888 62.4760 -3.7878 -4.1350 -38.3947 -0.0719 -1.7294 4.7584 -2.6890 -3.0646 22.3718 -8.2608 -5.9515 -1.4158 -5.9493 -2.9296 -15.0083 13.8135 8.3507 7.4099 -23.3765 11.0717 -8.8652 -9.8403 6.2199 -1.5756 -0.0000 0.0000 0.0000 2.3138 -19.6683 -16.2838 77.8225 -59.4322 -49.4741 -0.0000 0.0000 -12.9122 24.9256 12.3947 5.6965 -7.1250 0.0000 -0.0000 -2.1296 43.5920 0.0740 -0.0000 0.0000 0.0000 -15.5072 18.7149 -34.5752 -52.4526 53.9380 -28.1450 0.0000 0.0000 6.0695 -6.2793 11.8952 -1.2993 7.1250 -0.0000 -0.0000 14.5293 -18.2228 9.5698
0.00 0.00 0.00 7.0238 35.9393 -9.7532 0.0000 0.0000 0.0000 -6.9088 -7.9976 -28.2075 9.3791 17.0456 57.3923 0.8885 1.0923 17.4784 0.3634 3.8724 10.7179 0.0000 0.0000 0.0000 16.6772 -18.7260 -11.1685 -6.6074 -14.9922 47.3735 -3.2668 -8.6390 -37.9177 -0.8051 -5.7265 15.9929 3.2011 0.8590 14.4475 0.8521 1.7239 2.5255 -1.2358 0.8182 -5.3555 18.5698 11.5527 13.5018 -24.2121 17.6778 -4.8135 -10.7284 9.7318 0.3433 0.0000 -0.0000 0.0000 -14.5603 -10.4933 1.6212 81.9927 -59.7563 -53.0711 -0.0000 0.0000 -12.0483 26.8851 12.0186 6.0265 -7.1250 0.0000 -0.0000 -0.2961 43.4045 0.0117 0.0000 -0.0000 0.0000 9.5032 38.2344 -32.0685 -55.7825 55.0771 -30.8566 0.0000 -0.0000 -11.2724 -34.2888 13.0013 -8.7213 7.1250 -0.0000 -0.0000 -4.7386 -14.4041 -3.4228
0.00 0.00 0.00 7.1977 31.2882 -8.3501 0.0000 0.0000 0.0000 -7.8548 -3.5033 -22.6321 7.1962 15.4949 49.6124 0.6116 1.7808 14.2702 0.0491 1.4305 3.9341 0.0000 0.0000 0.0000 17.3253 -15.6952 -5.4037 -4.1890 -12.4078 37.1903 -2.2916 -10.0986 -33.6249 -0.5343 -4.6835 13.0081 5.7950 1.6587 8.3862 1.9950 2.7901 1.9350 -1.4706 1.3706 -2.5144 19.6795 13.2358 15.4608 -23.6676 20.8441 -2.9364 -10.4789 11.3761 1.3150 0.0000 -0.0000 0.0000 -20.7822 0.3463 8.7110 61.8027 -56.7715 -35.8451 -0.0000 0.0000 -9.0743 28.7209 11.3929 6.1778 -7.1250 0.0000 -0.0000 1.4352 42.9159 -0.0738 0.0000 -0.0000 0.0000 18.5079 38.2771 -19.7567 -56.5447 55.3166 -31.4825 0.0000 -0.0000 -25.6142 -29.9695 9.2752 -5.3099 7.1250 -0.0000 -0.0000 -2.1513 -19.3078 -1.3199
0.00 0.00 0.00 9.4837 19.4431 -0.1169 0.0000 0.0000 0.0000 -7.4850 3.2696 -12.5707 2.4983 9.8349 28.4436 0.5028 2.7260 12.7371 0.3580 3.8441 10.6384 0.0000 0.0000 0.0000 17.5596 -7.1045 0.8931 -1.2631 -7.1242 20.0839 -1.2719 -9.1593 -26.4160 -0.2278 -3.0719 8.4791 3.1232 1.4344 -0.5034 1.0416 2.0696 -5.4865 -0.7526 0.9211 -5.3251 17.9253 14.6000 14.9480 -21.2473 22.2274 -3.4492 -9.2970 11.9199 1.0569 0.0000 0.0000 0.0000 -15.9123 3.9902 -9.9218 12.4304 -20.4469 -2.2504 -0.0000 0.0000 -1.1136 24.7572 15.0531 6.8297 -7.1250 0.0000 -0.0000 -2.6879 46.4594 -0.0969 0.0000 0.0000 0.0000 17.8445 38.7459 -11.7274 -27.1808 38.3511 -9.6111 0.0000 -0.0000 -21.4343 5.7301 11.3668 1.1330 7.1250 -0.0000 -0.0000 22.6144 -18.9217 15.2927
0.00 0.00 0.00 -1.8675 -1.1941 -0.9450 0.0000 0.0000 0.0000 3.3044 -9.2460 1.0052 1.7071 8.2272 23.4064 -1.0459 18.7893 -0.4033 5.6426 14.0728 43.5299 0.0000 0.0000 0.0000 24.1176 -13.3718 -2.3373 -1.0633 -6.5558 18.4060 0.4211 14.6552 -4.4594 -0.0025 0.3201 -0.8796 -1.7642 1.2422 1.9193 0.6137 1.5996 -12.8429 1.4254 1.0306 -15.2995 14.9903 7.6647 6.9800 -10.7475 11.3346 -0.1371 -5.6921 5.8500 0.3042 0.0000 -0.0000 0.0000 5.8879 -5.4065 -34.9404 13.8730 -22.5528 -2.7792 -0.0000 -0.0000 0.0444 15.0330 17.4558 4.6059 -7.1250 0.0000 -0.0000 -12.4042 47.6220 -0.8144 0.0000 -0.0000 0.0000 20.6140 41.1560 -16.5202 -11.4808 19.0214 -1.9297 0.0000 0.0000 30.8205 24.6972 17.8885 8.0405 7.1250 -0.0000 -0.0000 32.3013 -11.7742 30.5152
0.00 0.00 0.00 -9.7474 -7.5485 -2.0170 0.0000 0.0000 0.0000 -0.3045 -8.2712 11.1845 1.1843 6.9064 19.4382 -1.2118 19.8798 -13.7130 0.1535 2.5249 6.9587 0.0000 0.0000 0.0000 22.7376 -11.2600 -4.8946 -1.5820 -7.9351 22.5170 -0.3263 10.9363 19.6709 -1.1320 -6.7574 18.9986 2.3853 0.7320 -0.5276 5.0141 1.6802 -13.2688 4.0454 0.9280 -14.3478 19.9335 7.1244 10.1813 -19.5233 10.7100 -9.1847 -9.7679 5.7349 -2.1179 0.0000 0.0000 0.0000 -4.8246 -7.3091 -19.1135 35.8619 -45.4178 -15.4240 -0.0000 0.0000 -10.9759 19.1428 14.8149 5.0721 -7.1250 0.0000 -0.0000 -7.8697 45.4722 -0.0923 0.0000 0.0000 0.0000 21.2334 42.3931 -10.4163 -24.1565 35.3293 -7.7968 0.0000 0.0000 24.5964 2.6253 13.8101 0.6271 7.1250 -0.0000 -0.0000 20.2920 -16.6334 14.5871
